<svg xmlns="http://www.w3.org/2000/svg" xmlns:xlink="http://www.w3.org/1999/xlink" contentStyleType="text/css" data-diagram-type="CLASS" height="540px" preserveAspectRatio="none" style="width:553px;height:540px;background:#FFFFFF;" version="1.1" viewBox="0 0 553 540" width="553px" zoomAndPan="magnify"><defs/><g><!--class FloorPanel--><g class="entity" data-entity="FloorPanel" data-source-line="1" data-uid="ent0002" id="entity_FloorPanel"><rect fill="#F1F1F1" height="129.4844" rx="2.5" ry="2.5" style="stroke:#181818;stroke-width:0.5;" width="144.5625" x="129.83" y="7"/><ellipse cx="162.5312" cy="23" fill="#ADD1B2" rx="11" ry="11" style="stroke:#181818;stroke-width:1;"/><path d="M165.4999,28.6406 Q164.9218,28.9375 164.2812,29.0781 Q163.6405,29.2344 162.9374,29.2344 Q160.4374,29.2344 159.1093,27.5938 Q157.7968,25.9375 157.7968,22.8125 Q157.7968,19.6875 159.1093,18.0313 Q160.4374,16.375 162.9374,16.375 Q163.6405,16.375 164.2812,16.5313 Q164.9374,16.6875 165.4999,16.9844 L165.4999,19.7031 Q164.8749,19.125 164.2812,18.8594 Q163.6874,18.5781 163.0624,18.5781 Q161.7187,18.5781 161.0312,19.6563 Q160.3437,20.7188 160.3437,22.8125 Q160.3437,24.9063 161.0312,25.9844 Q161.7187,27.0469 163.0624,27.0469 Q163.6874,27.0469 164.2812,26.7813 Q164.8749,26.5 165.4999,25.9219 L165.4999,28.6406 Z " fill="#000000"/><text fill="#000000" font-family="sans-serif" font-size="14" lengthAdjust="spacing" textLength="73.2266" x="180.4648" y="27.8467">FloorPanel</text><line style="stroke:#181818;stroke-width:0.5;" x1="130.83" x2="273.3925" y1="39" y2="39"/><rect fill="none" height="6" style="stroke:#C82930;stroke-width:1;" width="6" x="137.83" y="49.6484"/><text fill="#000000" font-family="sans-serif" font-size="14" lengthAdjust="spacing" textLength="77.5811" x="149.83" y="55.9951">floors: Int[]</text><ellipse cx="140.83" cy="68.9453" fill="none" rx="3" ry="3" style="stroke:#038048;stroke-width:1;"/><text fill="#000000" font-family="sans-serif" font-size="14" lengthAdjust="spacing" textLength="98.0273" x="149.83" y="72.292">goingUp: Bool</text><ellipse cx="140.83" cy="85.2422" fill="none" rx="3" ry="3" style="stroke:#038048;stroke-width:1;"/><text fill="#000000" font-family="sans-serif" font-size="14" lengthAdjust="spacing" textLength="118.5625" x="149.83" y="88.5889">goingDown: Bool</text><line style="stroke:#181818;stroke-width:0.5;" x1="130.83" x2="273.3925" y1="95.8906" y2="95.8906"/><ellipse cx="140.83" cy="109.5391" fill="#84BE84" rx="3" ry="3" style="stroke:#038048;stroke-width:1;"/><text fill="#000000" font-family="sans-serif" font-size="14" lengthAdjust="spacing" textLength="47.5098" x="149.83" y="112.8857">goUp()</text><ellipse cx="140.83" cy="125.8359" fill="#84BE84" rx="3" ry="3" style="stroke:#038048;stroke-width:1;"/><text fill="#000000" font-family="sans-serif" font-size="14" lengthAdjust="spacing" textLength="68.0449" x="149.83" y="129.1826">goDown()</text></g><!--class ElevatorPanel--><g class="entity" data-entity="ElevatorPanel" data-source-line="8" data-uid="ent0003" id="entity_ElevatorPanel"><rect fill="#F1F1F1" height="96.8906" rx="2.5" ry="2.5" style="stroke:#181818;stroke-width:0.5;" width="128.4209" x="371.9" y="23.3"/><ellipse cx="386.9" cy="39.3" fill="#ADD1B2" rx="11" ry="11" style="stroke:#181818;stroke-width:1;"/><path d="M389.8688,44.9406 Q389.2906,45.2375 388.65,45.3781 Q388.0094,45.5344 387.3063,45.5344 Q384.8063,45.5344 383.4781,43.8937 Q382.1656,42.2375 382.1656,39.1125 Q382.1656,35.9875 383.4781,34.3312 Q384.8063,32.675 387.3063,32.675 Q388.0094,32.675 388.65,32.8312 Q389.3063,32.9875 389.8688,33.2844 L389.8688,36.0031 Q389.2438,35.425 388.65,35.1594 Q388.0563,34.8781 387.4313,34.8781 Q386.0875,34.8781 385.4,35.9562 Q384.7125,37.0187 384.7125,39.1125 Q384.7125,41.2062 385.4,42.2844 Q386.0875,43.3469 387.4313,43.3469 Q388.0563,43.3469 388.65,43.0812 Q389.2438,42.8 389.8688,42.2219 L389.8688,44.9406 Z " fill="#000000"/><text fill="#000000" font-family="sans-serif" font-size="14" lengthAdjust="spacing" textLength="96.4209" x="400.9" y="44.1467">ElevatorPanel</text><line style="stroke:#181818;stroke-width:0.5;" x1="372.9" x2="499.3209" y1="55.3" y2="55.3"/><line style="stroke:#181818;stroke-width:0.5;" x1="372.9" x2="499.3209" y1="63.3" y2="63.3"/><ellipse cx="382.9" cy="76.9484" fill="#84BE84" rx="3" ry="3" style="stroke:#038048;stroke-width:1;"/><text fill="#000000" font-family="sans-serif" font-size="14" lengthAdjust="spacing" textLength="101.7939" x="391.9" y="80.2951">goto(floor: Int)</text><ellipse cx="382.9" cy="93.2453" fill="#84BE84" rx="3" ry="3" style="stroke:#038048;stroke-width:1;"/><text fill="#000000" font-family="sans-serif" font-size="14" lengthAdjust="spacing" textLength="79.5293" x="391.9" y="96.592">openDoor()</text><ellipse cx="382.9" cy="109.5422" fill="#84BE84" rx="3" ry="3" style="stroke:#038048;stroke-width:1;"/><text fill="#000000" font-family="sans-serif" font-size="14" lengthAdjust="spacing" textLength="80.6504" x="391.9" y="112.8889">closeDoor()</text></g><!--class Elevator--><g class="entity" data-entity="Elevator" data-source-line="13" data-uid="ent0004" id="entity_Elevator"><rect fill="#F1F1F1" height="162.0781" rx="2.5" ry="2.5" style="stroke:#181818;stroke-width:0.5;" width="149.5186" x="229.35" y="371.08"/><ellipse cx="271.1228" cy="387.08" fill="#ADD1B2" rx="11" ry="11" style="stroke:#181818;stroke-width:1;"/><path d="M274.0916,392.7206 Q273.5134,393.0175 272.8728,393.1581 Q272.2322,393.3144 271.5291,393.3144 Q269.0291,393.3144 267.7009,391.6737 Q266.3884,390.0175 266.3884,386.8925 Q266.3884,383.7675 267.7009,382.1112 Q269.0291,380.455 271.5291,380.455 Q272.2322,380.455 272.8728,380.6112 Q273.5291,380.7675 274.0916,381.0644 L274.0916,383.7831 Q273.4666,383.205 272.8728,382.9394 Q272.2791,382.6581 271.6541,382.6581 Q270.3103,382.6581 269.6228,383.7362 Q268.9353,384.7987 268.9353,386.8925 Q268.9353,388.9862 269.6228,390.0644 Q270.3103,391.1269 271.6541,391.1269 Q272.2791,391.1269 272.8728,390.8612 Q273.4666,390.58 274.0916,390.0019 L274.0916,392.7206 Z " fill="#000000"/><text fill="#000000" font-family="sans-serif" font-size="14" lengthAdjust="spacing" textLength="58.0234" x="291.0723" y="391.9267">Elevator</text><line style="stroke:#181818;stroke-width:0.5;" x1="230.35" x2="377.8686" y1="403.08" y2="403.08"/><ellipse cx="240.35" cy="416.7284" fill="none" rx="3" ry="3" style="stroke:#038048;stroke-width:1;"/><text fill="#000000" font-family="sans-serif" font-size="14" lengthAdjust="spacing" textLength="84.8613" x="249.35" y="420.0751">state: Enum</text><ellipse cx="240.35" cy="433.0253" fill="none" rx="3" ry="3" style="stroke:#038048;stroke-width:1;"/><text fill="#000000" font-family="sans-serif" font-size="14" lengthAdjust="spacing" textLength="59.3633" x="249.35" y="436.372">floor: Int</text><ellipse cx="240.35" cy="449.3222" fill="none" rx="3" ry="3" style="stroke:#038048;stroke-width:1;"/><text fill="#000000" font-family="sans-serif" font-size="14" lengthAdjust="spacing" textLength="123.5186" x="249.35" y="452.6689">targetFloors: Int[]</text><line style="stroke:#181818;stroke-width:0.5;" x1="230.35" x2="377.8686" y1="459.9706" y2="459.9706"/><ellipse cx="240.35" cy="473.6191" fill="#84BE84" rx="3" ry="3" style="stroke:#038048;stroke-width:1;"/><text fill="#000000" font-family="sans-serif" font-size="14" lengthAdjust="spacing" textLength="47.5098" x="249.35" y="476.9657">goUp()</text><ellipse cx="240.35" cy="489.9159" fill="#84BE84" rx="3" ry="3" style="stroke:#038048;stroke-width:1;"/><text fill="#000000" font-family="sans-serif" font-size="14" lengthAdjust="spacing" textLength="68.0449" x="249.35" y="493.2626">goDown()</text><ellipse cx="240.35" cy="506.2128" fill="#84BE84" rx="3" ry="3" style="stroke:#038048;stroke-width:1;"/><text fill="#000000" font-family="sans-serif" font-size="14" lengthAdjust="spacing" textLength="79.5293" x="249.35" y="509.5595">openDoor()</text><ellipse cx="240.35" cy="522.5097" fill="#84BE84" rx="3" ry="3" style="stroke:#038048;stroke-width:1;"/><text fill="#000000" font-family="sans-serif" font-size="14" lengthAdjust="spacing" textLength="80.6504" x="249.35" y="525.8564">closeDoor()</text></g><!--class ElevatorControl--><g class="entity" data-entity="ElevatorControl" data-source-line="22" data-uid="ent0005" id="entity_ElevatorControl"><rect fill="#F1F1F1" height="80.5938" rx="2.5" ry="2.5" style="stroke:#181818;stroke-width:0.5;" width="391.7158" x="108.25" y="213.49"/><ellipse cx="245.3892" cy="229.49" fill="#ADD1B2" rx="11" ry="11" style="stroke:#181818;stroke-width:1;"/><path d="M248.3579,235.1306 Q247.7798,235.4275 247.1392,235.5681 Q246.4985,235.7244 245.7954,235.7244 Q243.2954,235.7244 241.9673,234.0837 Q240.6548,232.4275 240.6548,229.3025 Q240.6548,226.1775 241.9673,224.5212 Q243.2954,222.865 245.7954,222.865 Q246.4985,222.865 247.1392,223.0212 Q247.7954,223.1775 248.3579,223.4744 L248.3579,226.1931 Q247.7329,225.615 247.1392,225.3494 Q246.5454,225.0681 245.9204,225.0681 Q244.5767,225.0681 243.8892,226.1462 Q243.2017,227.2087 243.2017,229.3025 Q243.2017,231.3962 243.8892,232.4744 Q244.5767,233.5369 245.9204,233.5369 Q246.5454,233.5369 247.1392,233.2712 Q247.7329,232.99 248.3579,232.4119 L248.3579,235.1306 Z " fill="#000000"/><text fill="#000000" font-family="sans-serif" font-size="14" lengthAdjust="spacing" textLength="108.9375" x="265.8892" y="234.3367">ElevatorControl</text><line style="stroke:#181818;stroke-width:0.5;" x1="109.25" x2="498.9658" y1="245.49" y2="245.49"/><line style="stroke:#181818;stroke-width:0.5;" x1="109.25" x2="498.9658" y1="253.49" y2="253.49"/><ellipse cx="119.25" cy="267.1384" fill="#84BE84" rx="3" ry="3" style="stroke:#038048;stroke-width:1;"/><text fill="#000000" font-family="sans-serif" font-size="14" lengthAdjust="spacing" textLength="365.7158" x="128.25" y="270.4851">requestElevator(from: Int, direction:Enum): Elevator</text><ellipse cx="119.25" cy="283.4353" fill="#84BE84" rx="3" ry="3" style="stroke:#038048;stroke-width:1;"/><text fill="#000000" font-family="sans-serif" font-size="14" lengthAdjust="spacing" textLength="283.6436" x="128.25" y="286.782">moveElevator(elevator: Elevator, to: Int)</text></g><!--link FloorPanel to ElevatorControl--><g class="link" data-entity-1="FloorPanel" data-entity-2="ElevatorControl" data-source-line="27" data-uid="lnk6" id="link_FloorPanel_ElevatorControl"><path codeLine="27" d="M239.8299,142.0127 C248.3099,157.3727 254.51,168.43 263.11,183.49 C268.65,193.2 271.6891,198.4436 277.4291,208.1636" fill="none" id="FloorPanel-ElevatorControl" style="stroke:#181818;stroke-width:1;"/><polygon fill="#181818" points="236.93,136.76,237.7781,146.5723,239.3466,141.1372,244.7816,142.7057,236.93,136.76" style="stroke:#181818;stroke-width:1;"/><polygon fill="#181818" points="280.48,213.33,279.3479,203.5464,277.9375,209.0247,272.4593,207.6144,280.48,213.33" style="stroke:#181818;stroke-width:1;"/><text fill="#000000" font-family="sans-serif" font-size="13" lengthAdjust="spacing" textLength="65.1968" x="264.11" y="179.5569">messages</text><text fill="#000000" font-family="sans-serif" font-size="13" lengthAdjust="spacing" textLength="8.271" x="232.3156" y="156.7658">3</text><text fill="#000000" font-family="sans-serif" font-size="13" lengthAdjust="spacing" textLength="8.271" x="267.9266" y="202.465">1</text></g><!--reverse link FloorPanel to Elevator--><g class="link" data-entity-1="FloorPanel" data-entity-2="Elevator" data-source-line="28" data-uid="lnk7" id="link_FloorPanel_Elevator"><path codeLine="28" d="M124.4703,112.2088 C85.4603,136.0488 46.08,168.1 24.11,213.49 C8.5,245.73 6,263.17 24.11,294.08 C67.98,368.99 162.11,410.88 229.1,432.2" fill="none" id="FloorPanel-backto-Elevator" style="stroke:#181818;stroke-width:1;"/><polygon fill="#181818" points="129.59,109.08,119.8247,110.36,125.3236,111.6873,123.9963,117.1862,129.59,109.08" style="stroke:#181818;stroke-width:1;"/><text fill="#000000" font-family="sans-serif" font-size="13" lengthAdjust="spacing" textLength="65.1968" x="25.11" y="258.3469">messages</text><text fill="#000000" font-family="sans-serif" font-size="13" lengthAdjust="spacing" textLength="8.271" x="113.7127" y="109.2308">3</text><text fill="#000000" font-family="sans-serif" font-size="13" lengthAdjust="spacing" textLength="8.271" x="212.9661" y="426.4462">1</text></g><!--link ElevatorPanel to Elevator--><g class="link" data-entity-1="ElevatorPanel" data-entity-2="Elevator" data-source-line="29" data-uid="lnk8" id="link_ElevatorPanel_Elevator"><path codeLine="29" d="M475.76,120.28 C508.81,166.04 546.17,236.56 517.11,294.08 C488.37,350.98 438.818,386.7201 389.748,412.6701" fill="none" id="ElevatorPanel-to-Elevator" style="stroke:#181818;stroke-width:1;"/><polygon fill="#181818" points="379.14,418.28,386.314,419.0111,389.748,412.6701,382.574,411.9391,379.14,418.28" style="stroke:#181818;stroke-width:1;"/><text fill="#000000" font-family="sans-serif" font-size="13" lengthAdjust="spacing" textLength="8.271" x="472.7923" y="140.2361">1</text><text fill="#000000" font-family="sans-serif" font-size="13" lengthAdjust="spacing" textLength="8.271" x="386.9329" y="411.2841">1</text></g><!--link ElevatorPanel to ElevatorControl--><g class="link" data-entity-1="ElevatorPanel" data-entity-2="ElevatorControl" data-source-line="30" data-uid="lnk9" id="link_ElevatorPanel_ElevatorControl"><path codeLine="30" d="M397.5323,125.3587 C376.3723,154.2187 356.8279,180.8813 336.8179,208.1713" fill="none" id="ElevatorPanel-ElevatorControl" style="stroke:#181818;stroke-width:1;"/><polygon fill="#181818" points="401.08,120.52,392.5325,125.413,398.1235,124.5523,398.9842,130.1433,401.08,120.52" style="stroke:#181818;stroke-width:1;"/><polygon fill="#181818" points="333.27,213.01,341.8176,208.1173,336.2266,208.9778,335.366,203.3868,333.27,213.01" style="stroke:#181818;stroke-width:1;"/><text fill="#000000" font-family="sans-serif" font-size="13" lengthAdjust="spacing" textLength="65.1968" x="367.11" y="179.5569">messages</text><text fill="#000000" font-family="sans-serif" font-size="13" lengthAdjust="spacing" textLength="8.271" x="387.8535" y="140.1577">2</text><text fill="#000000" font-family="sans-serif" font-size="13" lengthAdjust="spacing" textLength="8.271" x="329.3018" y="202.3934">1</text></g><!--link ElevatorControl to Elevator--><g class="link" data-entity-1="ElevatorControl" data-entity-2="Elevator" data-source-line="31" data-uid="lnk10" id="link_ElevatorControl_Elevator"><path codeLine="31" d="M304.11,294.52 C304.11,316.48 304.11,338.58 304.11,364.89" fill="none" id="ElevatorControl-to-Elevator" style="stroke:#181818;stroke-width:1;"/><polygon fill="#181818" points="304.11,370.89,308.11,361.89,304.11,365.89,300.11,361.89,304.11,370.89" style="stroke:#181818;stroke-width:1;"/><text fill="#000000" font-family="sans-serif" font-size="13" lengthAdjust="spacing" textLength="52.1206" x="305.11" y="337.1469">controls</text><text fill="#000000" font-family="sans-serif" font-size="13" lengthAdjust="spacing" textLength="8.271" x="295.4944" y="314.2846">1</text><text fill="#000000" font-family="sans-serif" font-size="13" lengthAdjust="spacing" textLength="8.271" x="295.7659" y="360.0604">2</text></g><!--SRC=[bL4zJyCm4DtpAqwUKcY6mcQX3j1MOcFfX1WiSuqYERvWNzi1zR-Js4bQXmoGoNxtlfpJHdaFEqFatfH50zyPj5znw10luTNo-qU0xakgRBbl93mJcHjeGsURWlicNmpdRjhUBfaEILk39yLfMCjYoaDY2EorrA3TjDZWfGrvx86ftU3aMJ5AsDfZ7O6hQxopSYNoRkvrCwt_tUE5B3iQ7-RmwuYUXsb-S5I7r2LyLWurLsHbLtOXHukehEc4empxmvMq1AR-Nrsox6Pzub70Kr6iGQp4hrOIH8tUgnAzc14bceIRRgsZ5SLTGfzI7lvQOpgCvklWC6wtLUWuz-87]--></g></svg>