<svg xmlns="http://www.w3.org/2000/svg" xmlns:xlink="http://www.w3.org/1999/xlink" contentStyleType="text/css" data-diagram-type="CLASS" height="540px" preserveAspectRatio="none" style="width:495px;height:540px;background:#FFFFFF;" version="1.1" viewBox="0 0 495 540" width="495px" zoomAndPan="magnify"><defs/><g><!--class FloorPanel--><g class="entity" data-entity="FloorPanel" data-source-line="1" data-uid="ent0002" id="entity_FloorPanel"><rect fill="#F1F1F1" height="129.4844" rx="2.5" ry="2.5" style="stroke:#181818;stroke-width:0.5;" width="144.5625" x="19.76" y="7"/><ellipse cx="52.4612" cy="23" fill="#ADD1B2" rx="11" ry="11" style="stroke:#181818;stroke-width:1;"/><path d="M55.4299,28.6406 Q54.8518,28.9375 54.2112,29.0781 Q53.5705,29.2344 52.8674,29.2344 Q50.3674,29.2344 49.0393,27.5938 Q47.7268,25.9375 47.7268,22.8125 Q47.7268,19.6875 49.0393,18.0313 Q50.3674,16.375 52.8674,16.375 Q53.5705,16.375 54.2112,16.5313 Q54.8674,16.6875 55.4299,16.9844 L55.4299,19.7031 Q54.8049,19.125 54.2112,18.8594 Q53.6174,18.5781 52.9924,18.5781 Q51.6487,18.5781 50.9612,19.6563 Q50.2737,20.7188 50.2737,22.8125 Q50.2737,24.9063 50.9612,25.9844 Q51.6487,27.0469 52.9924,27.0469 Q53.6174,27.0469 54.2112,26.7813 Q54.8049,26.5 55.4299,25.9219 L55.4299,28.6406 Z " fill="#000000"/><text fill="#000000" font-family="sans-serif" font-size="14" lengthAdjust="spacing" textLength="73.2266" x="70.3948" y="27.8467">FloorPanel</text><line style="stroke:#181818;stroke-width:0.5;" x1="20.76" x2="163.3225" y1="39" y2="39"/><rect fill="none" height="6" style="stroke:#C82930;stroke-width:1;" width="6" x="27.76" y="49.6484"/><text fill="#000000" font-family="sans-serif" font-size="14" lengthAdjust="spacing" textLength="77.5811" x="39.76" y="55.9951">floors: Int[]</text><ellipse cx="30.76" cy="68.9453" fill="none" rx="3" ry="3" style="stroke:#038048;stroke-width:1;"/><text fill="#000000" font-family="sans-serif" font-size="14" lengthAdjust="spacing" textLength="98.0273" x="39.76" y="72.292">goingUp: Bool</text><ellipse cx="30.76" cy="85.2422" fill="none" rx="3" ry="3" style="stroke:#038048;stroke-width:1;"/><text fill="#000000" font-family="sans-serif" font-size="14" lengthAdjust="spacing" textLength="118.5625" x="39.76" y="88.5889">goingDown: Bool</text><line style="stroke:#181818;stroke-width:0.5;" x1="20.76" x2="163.3225" y1="95.8906" y2="95.8906"/><ellipse cx="30.76" cy="109.5391" fill="#84BE84" rx="3" ry="3" style="stroke:#038048;stroke-width:1;"/><text fill="#000000" font-family="sans-serif" font-size="14" lengthAdjust="spacing" textLength="47.5098" x="39.76" y="112.8857">goUp()</text><ellipse cx="30.76" cy="125.8359" fill="#84BE84" rx="3" ry="3" style="stroke:#038048;stroke-width:1;"/><text fill="#000000" font-family="sans-serif" font-size="14" lengthAdjust="spacing" textLength="68.0449" x="39.76" y="129.1826">goDown()</text></g><!--class ElevatorPanel--><g class="entity" data-entity="ElevatorPanel" data-source-line="8" data-uid="ent0003" id="entity_ElevatorPanel"><rect fill="#F1F1F1" height="96.8906" rx="2.5" ry="2.5" style="stroke:#181818;stroke-width:0.5;" width="128.4209" x="319.83" y="23.3"/><ellipse cx="334.83" cy="39.3" fill="#ADD1B2" rx="11" ry="11" style="stroke:#181818;stroke-width:1;"/><path d="M337.7988,44.9406 Q337.2206,45.2375 336.58,45.3781 Q335.9394,45.5344 335.2363,45.5344 Q332.7363,45.5344 331.4081,43.8937 Q330.0956,42.2375 330.0956,39.1125 Q330.0956,35.9875 331.4081,34.3312 Q332.7363,32.675 335.2363,32.675 Q335.9394,32.675 336.58,32.8312 Q337.2363,32.9875 337.7988,33.2844 L337.7988,36.0031 Q337.1738,35.425 336.58,35.1594 Q335.9863,34.8781 335.3613,34.8781 Q334.0175,34.8781 333.33,35.9562 Q332.6425,37.0187 332.6425,39.1125 Q332.6425,41.2062 333.33,42.2844 Q334.0175,43.3469 335.3613,43.3469 Q335.9863,43.3469 336.58,43.0812 Q337.1738,42.8 337.7988,42.2219 L337.7988,44.9406 Z " fill="#000000"/><text fill="#000000" font-family="sans-serif" font-size="14" lengthAdjust="spacing" textLength="96.4209" x="348.83" y="44.1467">ElevatorPanel</text><line style="stroke:#181818;stroke-width:0.5;" x1="320.83" x2="447.2509" y1="55.3" y2="55.3"/><line style="stroke:#181818;stroke-width:0.5;" x1="320.83" x2="447.2509" y1="63.3" y2="63.3"/><ellipse cx="330.83" cy="76.9484" fill="#84BE84" rx="3" ry="3" style="stroke:#038048;stroke-width:1;"/><text fill="#000000" font-family="sans-serif" font-size="14" lengthAdjust="spacing" textLength="101.7939" x="339.83" y="80.2951">goto(floor: Int)</text><ellipse cx="330.83" cy="93.2453" fill="#84BE84" rx="3" ry="3" style="stroke:#038048;stroke-width:1;"/><text fill="#000000" font-family="sans-serif" font-size="14" lengthAdjust="spacing" textLength="79.5293" x="339.83" y="96.592">openDoor()</text><ellipse cx="330.83" cy="109.5422" fill="#84BE84" rx="3" ry="3" style="stroke:#038048;stroke-width:1;"/><text fill="#000000" font-family="sans-serif" font-size="14" lengthAdjust="spacing" textLength="80.6504" x="339.83" y="112.8889">closeDoor()</text></g><!--class Elevator--><g class="entity" data-entity="Elevator" data-source-line="13" data-uid="ent0004" id="entity_Elevator"><rect fill="#F1F1F1" height="162.0781" rx="2.5" ry="2.5" style="stroke:#181818;stroke-width:0.5;" width="149.5186" x="206.28" y="371.08"/><ellipse cx="248.0528" cy="387.08" fill="#ADD1B2" rx="11" ry="11" style="stroke:#181818;stroke-width:1;"/><path d="M251.0216,392.7206 Q250.4434,393.0175 249.8028,393.1581 Q249.1622,393.3144 248.4591,393.3144 Q245.9591,393.3144 244.6309,391.6737 Q243.3184,390.0175 243.3184,386.8925 Q243.3184,383.7675 244.6309,382.1112 Q245.9591,380.455 248.4591,380.455 Q249.1622,380.455 249.8028,380.6112 Q250.4591,380.7675 251.0216,381.0644 L251.0216,383.7831 Q250.3966,383.205 249.8028,382.9394 Q249.2091,382.6581 248.5841,382.6581 Q247.2403,382.6581 246.5528,383.7362 Q245.8653,384.7987 245.8653,386.8925 Q245.8653,388.9862 246.5528,390.0644 Q247.2403,391.1269 248.5841,391.1269 Q249.2091,391.1269 249.8028,390.8612 Q250.3966,390.58 251.0216,390.0019 L251.0216,392.7206 Z " fill="#000000"/><text fill="#000000" font-family="sans-serif" font-size="14" lengthAdjust="spacing" textLength="58.0234" x="268.0023" y="391.9267">Elevator</text><line style="stroke:#181818;stroke-width:0.5;" x1="207.28" x2="354.7986" y1="403.08" y2="403.08"/><ellipse cx="217.28" cy="416.7284" fill="none" rx="3" ry="3" style="stroke:#038048;stroke-width:1;"/><text fill="#000000" font-family="sans-serif" font-size="14" lengthAdjust="spacing" textLength="84.8613" x="226.28" y="420.0751">state: Enum</text><ellipse cx="217.28" cy="433.0253" fill="none" rx="3" ry="3" style="stroke:#038048;stroke-width:1;"/><text fill="#000000" font-family="sans-serif" font-size="14" lengthAdjust="spacing" textLength="59.3633" x="226.28" y="436.372">floor: Int</text><ellipse cx="217.28" cy="449.3222" fill="none" rx="3" ry="3" style="stroke:#038048;stroke-width:1;"/><text fill="#000000" font-family="sans-serif" font-size="14" lengthAdjust="spacing" textLength="123.5186" x="226.28" y="452.6689">targetFloors: Int[]</text><line style="stroke:#181818;stroke-width:0.5;" x1="207.28" x2="354.7986" y1="459.9706" y2="459.9706"/><ellipse cx="217.28" cy="473.6191" fill="#84BE84" rx="3" ry="3" style="stroke:#038048;stroke-width:1;"/><text fill="#000000" font-family="sans-serif" font-size="14" lengthAdjust="spacing" textLength="47.5098" x="226.28" y="476.9657">goUp()</text><ellipse cx="217.28" cy="489.9159" fill="#84BE84" rx="3" ry="3" style="stroke:#038048;stroke-width:1;"/><text fill="#000000" font-family="sans-serif" font-size="14" lengthAdjust="spacing" textLength="68.0449" x="226.28" y="493.2626">goDown()</text><ellipse cx="217.28" cy="506.2128" fill="#84BE84" rx="3" ry="3" style="stroke:#038048;stroke-width:1;"/><text fill="#000000" font-family="sans-serif" font-size="14" lengthAdjust="spacing" textLength="79.5293" x="226.28" y="509.5595">openDoor()</text><ellipse cx="217.28" cy="522.5097" fill="#84BE84" rx="3" ry="3" style="stroke:#038048;stroke-width:1;"/><text fill="#000000" font-family="sans-serif" font-size="14" lengthAdjust="spacing" textLength="80.6504" x="226.28" y="525.8564">closeDoor()</text></g><!--class ElevatorControl--><g class="entity" data-entity="ElevatorControl" data-source-line="22" data-uid="ent0005" id="entity_ElevatorControl"><rect fill="#F1F1F1" height="80.5938" rx="2.5" ry="2.5" style="stroke:#181818;stroke-width:0.5;" width="326.8223" x="117.63" y="213.49"/><ellipse cx="222.3224" cy="229.49" fill="#ADD1B2" rx="11" ry="11" style="stroke:#181818;stroke-width:1;"/><path d="M225.2911,235.1306 Q224.713,235.4275 224.0724,235.5681 Q223.4318,235.7244 222.7286,235.7244 Q220.2286,235.7244 218.9005,234.0837 Q217.588,232.4275 217.588,229.3025 Q217.588,226.1775 218.9005,224.5212 Q220.2286,222.865 222.7286,222.865 Q223.4318,222.865 224.0724,223.0212 Q224.7286,223.1775 225.2911,223.4744 L225.2911,226.1931 Q224.6661,225.615 224.0724,225.3494 Q223.4786,225.0681 222.8536,225.0681 Q221.5099,225.0681 220.8224,226.1462 Q220.1349,227.2087 220.1349,229.3025 Q220.1349,231.3962 220.8224,232.4744 Q221.5099,233.5369 222.8536,233.5369 Q223.4786,233.5369 224.0724,233.2712 Q224.6661,232.99 225.2911,232.4119 L225.2911,235.1306 Z " fill="#000000"/><text fill="#000000" font-family="sans-serif" font-size="14" lengthAdjust="spacing" textLength="108.9375" x="242.8224" y="234.3367">ElevatorControl</text><line style="stroke:#181818;stroke-width:0.5;" x1="118.63" x2="443.4523" y1="245.49" y2="245.49"/><line style="stroke:#181818;stroke-width:0.5;" x1="118.63" x2="443.4523" y1="253.49" y2="253.49"/><ellipse cx="128.63" cy="267.1384" fill="#84BE84" rx="3" ry="3" style="stroke:#038048;stroke-width:1;"/><text fill="#000000" font-family="sans-serif" font-size="14" lengthAdjust="spacing" textLength="300.8223" x="137.63" y="270.4851">requestElevator(from: Int, to: Int): Elevator</text><ellipse cx="128.63" cy="283.4353" fill="#84BE84" rx="3" ry="3" style="stroke:#038048;stroke-width:1;"/><text fill="#000000" font-family="sans-serif" font-size="14" lengthAdjust="spacing" textLength="283.6436" x="137.63" y="286.782">moveElevator(elevator: Elevator, to: Int)</text></g><!--link FloorPanel to ElevatorControl--><g class="link" data-entity-1="FloorPanel" data-entity-2="ElevatorControl" data-source-line="27" data-uid="lnk6" id="link_FloorPanel_ElevatorControl"><path codeLine="27" d="M163.8146,141.1181 C190.5346,166.5681 211.7157,186.7415 235.1557,209.0715" fill="none" id="FloorPanel-ElevatorControl" style="stroke:#181818;stroke-width:1;"/><polygon fill="#181818" points="159.47,136.98,163.2282,146.0836,163.0905,140.4284,168.7457,140.2908,159.47,136.98" style="stroke:#181818;stroke-width:1;"/><polygon fill="#181818" points="239.5,213.21,235.7426,204.106,235.8798,209.7612,230.2246,209.8984,239.5,213.21" style="stroke:#181818;stroke-width:1;"/><text fill="#000000" font-family="sans-serif" font-size="13" lengthAdjust="spacing" textLength="65.1968" x="204.04" y="179.5569">messages</text><text fill="#000000" font-family="sans-serif" font-size="13" lengthAdjust="spacing" textLength="8.271" x="158.0251" y="156.5548">3</text><text fill="#000000" font-family="sans-serif" font-size="13" lengthAdjust="spacing" textLength="8.271" x="223.9797" y="202.3252">1</text></g><!--reverse link FloorPanel to Elevator--><g class="link" data-entity-1="FloorPanel" data-entity-2="Elevator" data-source-line="28" data-uid="lnk7" id="link_FloorPanel_Elevator"><path codeLine="28" d="M47.8713,142.1878 C23.8713,188.1178 6,244.96 33.04,294.08 C69.53,360.38 147.14,402.6 205.88,426.38" fill="none" id="FloorPanel-backto-Elevator" style="stroke:#181818;stroke-width:1;"/><polygon fill="#181818" points="50.65,136.87,42.9367,142.9942,48.3344,141.3015,50.0271,146.6991,50.65,136.87" style="stroke:#181818;stroke-width:1;"/><text fill="#000000" font-family="sans-serif" font-size="13" lengthAdjust="spacing" textLength="65.1968" x="34.04" y="258.3469">messages</text><text fill="#000000" font-family="sans-serif" font-size="13" lengthAdjust="spacing" textLength="8.271" x="37.983" y="156.4335">3</text><text fill="#000000" font-family="sans-serif" font-size="13" lengthAdjust="spacing" textLength="8.271" x="190.1011" y="420.1815">1</text></g><!--link ElevatorPanel to Elevator--><g class="link" data-entity-1="ElevatorPanel" data-entity-2="Elevator" data-source-line="29" data-uid="lnk8" id="link_ElevatorPanel_Elevator"><path codeLine="29" d="M421.93,120.34 C453.24,165.82 488.6,235.89 462.04,294.08 C440.11,342.15 405.2816,374.3761 365.7816,401.5061" fill="none" id="ElevatorPanel-to-Elevator" style="stroke:#181818;stroke-width:1;"/><polygon fill="#181818" points="355.89,408.3,363.1004,408.2002,365.7816,401.5061,358.5712,401.6059,355.89,408.3" style="stroke:#181818;stroke-width:1;"/><text fill="#000000" font-family="sans-serif" font-size="13" lengthAdjust="spacing" textLength="8.271" x="418.7148" y="140.3045">1</text><text fill="#000000" font-family="sans-serif" font-size="13" lengthAdjust="spacing" textLength="8.271" x="364.0355" y="400.0815">1</text></g><!--link ElevatorPanel to ElevatorControl--><g class="link" data-entity-1="ElevatorPanel" data-entity-2="ElevatorControl" data-source-line="30" data-uid="lnk9" id="link_ElevatorPanel_ElevatorControl"><path codeLine="30" d="M353.7306,125.728 C337.2206,154.588 322.3891,180.5118 306.7791,207.8018" fill="none" id="ElevatorPanel-ElevatorControl" style="stroke:#181818;stroke-width:1;"/><polygon fill="#181818" points="356.71,120.52,348.769,126.3458,354.2272,124.86,355.713,130.3183,356.71,120.52" style="stroke:#181818;stroke-width:1;"/><polygon fill="#181818" points="303.8,213.01,311.7408,207.1838,306.2826,208.6699,304.7965,203.2117,303.8,213.01" style="stroke:#181818;stroke-width:1;"/><text fill="#000000" font-family="sans-serif" font-size="13" lengthAdjust="spacing" textLength="65.1968" x="330.04" y="179.5569">messages</text><text fill="#000000" font-family="sans-serif" font-size="13" lengthAdjust="spacing" textLength="8.271" x="344.5182" y="140.1577">2</text><text fill="#000000" font-family="sans-serif" font-size="13" lengthAdjust="spacing" textLength="8.271" x="298.8113" y="202.3934">1</text></g><!--link ElevatorControl to Elevator--><g class="link" data-entity-1="ElevatorControl" data-entity-2="Elevator" data-source-line="31" data-uid="lnk10" id="link_ElevatorControl_Elevator"><path codeLine="31" d="M281.04,294.52 C281.04,316.48 281.04,338.58 281.04,364.89" fill="none" id="ElevatorControl-to-Elevator" style="stroke:#181818;stroke-width:1;"/><polygon fill="#181818" points="281.04,370.89,285.04,361.89,281.04,365.89,277.04,361.89,281.04,370.89" style="stroke:#181818;stroke-width:1;"/><text fill="#000000" font-family="sans-serif" font-size="13" lengthAdjust="spacing" textLength="52.1206" x="282.04" y="337.1469">controls</text><text fill="#000000" font-family="sans-serif" font-size="13" lengthAdjust="spacing" textLength="8.271" x="272.4239" y="314.2846">1</text><text fill="#000000" font-family="sans-serif" font-size="13" lengthAdjust="spacing" textLength="8.271" x="272.6959" y="360.0604">2</text></g><!--SRC=[bL4xJyCm4DxpAonFuU6Xi5ceGsahTMFfX1Yiw1eXERxWkvO1yTznx3pga04ydR_x7dUwoXeYiRU8_iKuiEAh4E6fKuUG5WV7hsyHkglntTN7LeiDehs2jlZfSl3ObZT3tNN3xxkeOjBEmiLm7XPOZ6LCZ86z5bjmsu0DNfL5WXwOsmrEn8P1YvqxDmcONDEVZQ-1zqlRBKpzxpcUqR77SJ4F7sSW7hhboMCJK-y5OzfLZzeaQV028n_wOY9Dmf1TNDrDFahnfDHQo9NyDOuMiW4YKmF91L6coRZvkJgQKhSPVKvv-EiOysOoNqU7yQn1KQK-oHy0]--></g></svg>