<svg xmlns="http://www.w3.org/2000/svg" xmlns:xlink="http://www.w3.org/1999/xlink" contentStyleType="text/css" data-diagram-type="DESCRIPTION" height="485px" preserveAspectRatio="none" style="width:273px;height:485px;background:#FFFFFF;" version="1.1" viewBox="0 0 273 485" width="273px" zoomAndPan="magnify"><defs/><g><!--cluster Elevator System--><g class="cluster" data-entity="Elevator System" data-source-line="5" data-uid="ent0003" id="cluster_Elevator System"><rect fill="none" height="472" rx="2.5" ry="2.5" style="stroke:#181818;stroke-width:1;" width="185.83" x="81.91" y="7"/><text fill="#000000" font-family="sans-serif" font-size="14" font-weight="bold" lengthAdjust="spacing" textLength="128.8369" x="110.4065" y="21.9951">Elevator System</text></g><!--entity goUp--><g class="entity" data-entity="goUp" data-source-line="6" data-uid="ent0004" id="entity_goUp"><ellipse cx="174.8326" cy="448.0036" fill="#F1F1F1" rx="32.4326" ry="14.5236" style="stroke:#181818;stroke-width:0.5;"/><text fill="#000000" font-family="sans-serif" font-size="14" lengthAdjust="spacing" textLength="41.624" x="154.0206" y="452.6521">Go up</text></g><!--entity goDown--><g class="entity" data-entity="goDown" data-source-line="7" data-uid="ent0005" id="entity_goDown"><ellipse cx="174.8258" cy="384.0036" fill="#F1F1F1" rx="46.5858" ry="14.5236" style="stroke:#181818;stroke-width:0.5;"/><text fill="#000000" font-family="sans-serif" font-size="14" lengthAdjust="spacing" textLength="61.6396" x="144.006" y="388.6521">Go down</text></g><!--entity openDoor--><g class="entity" data-entity="openDoor" data-source-line="8" data-uid="ent0006" id="entity_openDoor"><ellipse cx="174.8345" cy="320.0036" fill="#F1F1F1" rx="55.0545" ry="14.5236" style="stroke:#181818;stroke-width:0.5;"/><text fill="#000000" font-family="sans-serif" font-size="14" lengthAdjust="spacing" textLength="73.6162" x="138.0264" y="324.6521">Open door</text></g><!--entity closeDoor--><g class="entity" data-entity="closeDoor" data-source-line="9" data-uid="ent0007" id="entity_closeDoor"><ellipse cx="174.8314" cy="256.0036" fill="#F1F1F1" rx="55.5814" ry="14.5236" style="stroke:#181818;stroke-width:0.5;"/><text fill="#000000" font-family="sans-serif" font-size="14" lengthAdjust="spacing" textLength="74.3613" x="137.6507" y="260.6521">Close door</text></g><!--entity goToFloor--><g class="entity" data-entity="goToFloor" data-source-line="10" data-uid="ent0008" id="entity_goToFloor"><ellipse cx="174.8284" cy="192.0036" fill="#F1F1F1" rx="55.3784" ry="14.5236" style="stroke:#181818;stroke-width:0.5;"/><text fill="#000000" font-family="sans-serif" font-size="14" lengthAdjust="spacing" textLength="74.0742" x="137.7913" y="196.6521">Go to floor</text></g><!--entity getElevator--><g class="entity" data-entity="getElevator" data-source-line="11" data-uid="ent0009" id="entity_getElevator"><ellipse cx="174.8304" cy="128.0041" fill="#F1F1F1" rx="62.6704" ry="14.9341" style="stroke:#181818;stroke-width:0.5;"/><text fill="#000000" font-family="sans-serif" font-size="14" lengthAdjust="spacing" textLength="87.1924" x="131.2342" y="132.6525">Get elevator</text></g><!--entity getElevatorFloor--><g class="entity" data-entity="getElevatorFloor" data-source-line="12" data-uid="ent0010" id="entity_getElevatorFloor"><ellipse cx="174.8261" cy="60.0032" fill="#F1F1F1" rx="76.9161" ry="17.7832" style="stroke:#181818;stroke-width:0.5;"/><text fill="#000000" font-family="sans-serif" font-size="14" lengthAdjust="spacing" textLength="123.3477" x="113.1523" y="64.6517">Get elevator floor</text></g><!--entity user--><g class="entity" data-entity="user" data-source-line="3" data-uid="ent0002" id="entity_user"><ellipse cx="21.9551" cy="226.35" fill="#F1F1F1" rx="8" ry="8" style="stroke:#181818;stroke-width:0.5;"/><path d="M21.9551,234.35 L21.9551,261.35 M8.9551,242.35 L34.9551,242.35 M21.9551,261.35 L8.9551,276.35 M21.9551,261.35 L34.9551,276.35" fill="none" style="stroke:#181818;stroke-width:0.5;"/><text fill="#000000" font-family="sans-serif" font-size="14" lengthAdjust="spacing" textLength="31.9102" x="6" y="290.8451">User</text></g><!--link user to goUp--><g class="link" data-entity-1="user" data-entity-2="goUp" data-source-line="15" data-uid="lnk11" id="link_user_goUp"><path d="M25.37,294.4 C29.66,330.43 41.47,383.51 73.91,416 C92.06,434.18 114.5905,441.123 136.5105,444.513" fill="none" id="user-to-goUp" style="stroke:#181818;stroke-width:1;"/><polygon fill="#181818" points="142.44,445.43,134.1571,440.1015,137.4987,444.6658,132.9344,448.0075,142.44,445.43" style="stroke:#181818;stroke-width:1;"/></g><!--link user to goDown--><g class="link" data-entity-1="user" data-entity-2="goDown" data-source-line="16" data-uid="lnk12" id="link_user_goDown"><path d="M35.31,294.28 C43.44,314 55.96,336.99 73.91,352 C90.26,365.67 106.6856,372.1723 126.0556,376.6723" fill="none" id="user-to-goDown" style="stroke:#181818;stroke-width:1;"/><polygon fill="#181818" points="131.9,378.03,124.0386,372.0971,127.0297,376.8985,122.2283,379.8896,131.9,378.03" style="stroke:#181818;stroke-width:1;"/></g><!--link user to openDoor--><g class="link" data-entity-1="user" data-entity-2="openDoor" data-source-line="17" data-uid="lnk13" id="link_user_openDoor"><path d="M37.99,266.85 C47.85,273.61 61.22,282.1 73.91,288 C93.23,296.99 109.998,302.767 128.768,308.217" fill="none" id="user-to-openDoor" style="stroke:#181818;stroke-width:1;"/><polygon fill="#181818" points="134.53,309.89,127.0023,303.5391,129.7283,308.4958,124.7716,311.2218,134.53,309.89" style="stroke:#181818;stroke-width:1;"/></g><!--link user to closeDoor--><g class="link" data-entity-1="user" data-entity-2="closeDoor" data-source-line="18" data-uid="lnk14" id="link_user_closeDoor"><path d="M38.25,256 C57.13,256 84.27,256 113.05,256" fill="none" id="user-to-closeDoor" style="stroke:#181818;stroke-width:1;"/><polygon fill="#181818" points="119.05,256,110.05,252,114.05,256,110.05,260,119.05,256" style="stroke:#181818;stroke-width:1;"/></g><!--link user to goToFloor--><g class="link" data-entity-1="user" data-entity-2="goToFloor" data-source-line="19" data-uid="lnk15" id="link_user_goToFloor"><path d="M37.99,245.15 C47.85,238.39 61.22,229.9 73.91,224 C93.07,215.09 109.6187,209.3556 128.2887,203.9256" fill="none" id="user-to-goToFloor" style="stroke:#181818;stroke-width:1;"/><polygon fill="#181818" points="134.05,202.25,124.291,200.9226,129.2489,203.6463,126.5252,208.6043,134.05,202.25" style="stroke:#181818;stroke-width:1;"/></g><!--link user to getElevator--><g class="link" data-entity-1="user" data-entity-2="getElevator" data-source-line="20" data-uid="lnk16" id="link_user_getElevator"><path d="M35.31,217.72 C43.44,198 55.96,175.01 73.91,160 C87.6,148.55 99.6849,142.8075 116.5049,138.0675" fill="none" id="user-to-getElevator" style="stroke:#181818;stroke-width:1;"/><polygon fill="#181818" points="122.28,136.44,112.5324,135.0311,117.4674,137.7962,114.7024,142.7312,122.28,136.44" style="stroke:#181818;stroke-width:1;"/></g><!--link user to getElevatorFloor--><g class="link" data-entity-1="user" data-entity-2="getElevatorFloor" data-source-line="21" data-uid="lnk17" id="link_user_getElevatorFloor"><path d="M25.68,217.51 C30.19,181.67 42.16,128.97 73.91,96 C84.91,84.58 94.1514,78.7931 109.0614,73.4531" fill="none" id="user-to-getElevatorFloor" style="stroke:#181818;stroke-width:1;"/><polygon fill="#181818" points="114.71,71.43,104.8883,70.6988,110.0028,73.1159,107.5857,78.2304,114.71,71.43" style="stroke:#181818;stroke-width:1;"/></g><!--SRC=[TP1D3i8W48Ntd6BIVQ_WngfB5ze343h59iWqG3N6U7U7_j9KsGnltWVCms0T812uHjy2L8r35HgoGaWLo47fqO7qq74L8fhIQeEG7Gm-P2GkBn_mdi5R02_cbFJidmYwDej7DPNjngleQKUtuEtQFxTecI3N4yIgOB5czeQup92ASalnIvojDXEcwKf7iyKm08w11Wx35F0_cTwxyCFr7o7Ybq6UxuOFI5GVUDPplBcpP4aEJNClhMJ4NyqU_m80]--></g></svg>